<svg width="13.333374" height="6.666626" viewBox="0 0 13.3334 6.66663" fill="none" xmlns="http://www.w3.org/2000/svg" xmlns:xlink="http://www.w3.org/1999/xlink">
	<desc>
			Created with Pixso.
	</desc>
	<defs/>
	<path id="Vector" d="M12.7 2.69C13.4 2.18 13.54 1.24 13 0.58C12.46 -0.08 11.46 -0.2 10.76 0.31L5.69 3.97C4.99 4.47 4.86 5.42 5.4 6.07C5.94 6.73 6.94 6.86 7.64 6.35L12.7 2.69Z" fill="#3A3A3C" fill-opacity="1.000000" fill-rule="nonzero"/>
	<path id="Vector" d="M2.56 0.31C1.86 -0.19 0.86 -0.07 0.32 0.59C-0.21 1.25 -0.08 2.19 0.62 2.7L5.69 6.35C6.39 6.86 7.4 6.73 7.93 6.07C8.47 5.41 8.34 4.47 7.64 3.97L2.56 0.31Z" fill="#3A3A3C" fill-opacity="1.000000" fill-rule="nonzero"/>
</svg>
