<svg width="18.000000" height="20.000000" viewBox="0 0 18 20" fill="none" xmlns="http://www.w3.org/2000/svg" xmlns:xlink="http://www.w3.org/1999/xlink">
	<desc>
			Created with Pixso.
	</desc>
	<defs/>
	<path id="Vector" d="M4 4L4 1C4 0.73 4.1 0.48 4.29 0.29C4.48 0.1 4.73 0 5 0L17 0C17.26 0 17.51 0.1 17.7 0.29C17.89 0.48 18 0.73 18 1L18 15C18 15.26 17.89 15.51 17.7 15.7C17.51 15.89 17.26 16 17 16L14 16L14 19C14 19.55 13.54 20 12.99 20L1 20C0.87 20 0.74 19.97 0.62 19.92C0.5 19.87 0.38 19.8 0.29 19.7C0.2 19.61 0.12 19.5 0.07 19.38C0.02 19.26 0 19.13 0 19L0 5C0 4.44 0.45 4 1 4L4 4ZM2 6L2 18L12 18L12 6L2 6ZM6 4L14 4L14 14L16 14L16 2L6 2L6 4Z" fill="#171717" fill-opacity="1.000000" fill-rule="nonzero"/>
</svg>
