<svg width="20.000000" height="20.000000" viewBox="0 0 20 20" fill="none" xmlns="http://www.w3.org/2000/svg" xmlns:xlink="http://www.w3.org/1999/xlink">
	<desc>
			Created with Pixso.
	</desc>
	<defs/>
	<path id="Vector" d="M10 20C4.47 20 0 15.52 0 10C0 4.47 4.47 0 10 0C15.52 0 20 4.47 20 10C20 15.52 15.52 20 10 20ZM9 13L9 15L11 15L11 13L9 13ZM11 11.35C11.8 11.11 12.49 10.59 12.94 9.88C13.39 9.17 13.57 8.32 13.45 7.49C13.33 6.66 12.91 5.9 12.28 5.35C11.64 4.8 10.83 4.5 10 4.5C9.19 4.49 8.4 4.78 7.78 5.29C7.15 5.8 6.72 6.51 6.56 7.31L8.52 7.7C8.58 7.42 8.71 7.17 8.91 6.96C9.11 6.75 9.36 6.61 9.63 6.54C9.91 6.47 10.2 6.48 10.47 6.57C10.74 6.66 10.97 6.82 11.15 7.04C11.33 7.26 11.45 7.53 11.48 7.81C11.52 8.09 11.47 8.38 11.35 8.64C11.23 8.89 11.04 9.11 10.8 9.26C10.56 9.41 10.28 9.5 10 9.5C9.73 9.5 9.48 9.6 9.29 9.79C9.1 9.98 9 10.23 9 10.5L9 12L11 12L11 11.35Z" fill="#9C99AD" fill-opacity="1.000000" fill-rule="nonzero"/>
</svg>
