<svg width="20.000000" height="18.000000" viewBox="0 0 20 18" fill="none" xmlns="http://www.w3.org/2000/svg" xmlns:xlink="http://www.w3.org/1999/xlink">
	<desc>
			Created with Pixso.
	</desc>
	<defs/>
	<path id="Vector" d="M17.27 17.08C17.27 17.32 17.17 17.55 17 17.73C16.83 17.9 16.6 18 16.36 18L3.63 18C3.39 18 3.16 17.9 2.99 17.73C2.82 17.55 2.72 17.32 2.72 17.08L2.72 8.83L0 8.83L9.38 0.23C9.55 0.08 9.77 0 10 0C10.22 0 10.44 0.08 10.61 0.23L20 8.83L17.27 8.83L17.27 17.08ZM7.27 7.92L7.27 13.41L12.72 13.41L12.72 7.92L7.27 7.92ZM9.09 9.75L10.9 9.75L10.9 11.58L9.09 11.58L9.09 9.75Z" fill="#9C99AD" fill-opacity="1.000000" fill-rule="nonzero"/>
</svg>
