<!-- Generated by IcoMoon.io -->
<svg version="1.1" xmlns="http://www.w3.org/2000/svg" viewBox="0 0 1024 1024">
<g id="icomoon-ignore">
</g>
<path fill="#fff" d="M512 0c-281.6 0-512 230.4-512 512s230.4 512 512 512 512-230.4 512-512-227.84-512-512-512zM747.563 739.84c-10.24 15.317-28.16 20.48-43.563 10.24-120.32-74.24-271.36-89.643-450.603-48.683-17.835 5.205-33.237-7.637-38.357-22.997-5.12-17.963 7.68-33.28 23.040-38.4 194.56-43.563 363.52-25.6 496.64 56.32 17.92 7.68 20.437 28.117 12.843 43.52zM809.003 599.040c-12.843 17.92-35.883 25.6-53.845 12.8-138.197-84.48-348.117-110.080-509.397-58.88-20.437 5.12-43.52-5.12-48.64-25.6s5.12-43.563 25.6-48.683c186.88-56.277 417.28-28.075 576 69.163 15.403 7.723 23.040 33.28 10.283 51.2zM814.123 455.68c-163.883-97.28-437.803-107.52-593.963-58.837-25.6 7.637-51.2-7.723-58.88-30.763-7.68-25.643 7.68-51.2 30.72-58.923 181.76-53.76 481.28-43.52 670.763 69.163 22.997 12.8 30.677 43.52 17.877 66.56-12.757 17.963-43.52 25.557-66.517 12.8z"></path>
</svg>
