<svg width="18.000000" height="20.000000" viewBox="0 0 18 20" fill="none" xmlns="http://www.w3.org/2000/svg" xmlns:xlink="http://www.w3.org/1999/xlink">
	<desc>
			Created with Pixso.
	</desc>
	<defs/>
	<path id="Vector" d="M17 20L1 20C0.73 20 0.48 19.89 0.29 19.7C0.1 19.51 0 19.26 0 19L0 6L18 6L18 19C18 19.26 17.89 19.51 17.7 19.7C17.51 19.89 17.26 20 17 20ZM18 4L0 4L0 1C0 0.73 0.1 0.48 0.29 0.29C0.48 0.1 0.73 0 1 0L17 0C17.26 0 17.51 0.1 17.7 0.29C17.89 0.48 18 0.73 18 1L18 4ZM4 9L4 13L8 13L8 9L4 9ZM4 15L4 17L14 17L14 15L4 15ZM10 10L10 12L14 12L14 10L10 10Z" fill="#9C99AD" fill-opacity="1.000000" fill-rule="nonzero"/>
</svg>
