<svg width="20.000000" height="20.000000" viewBox="0 0 20 20" fill="none" xmlns="http://www.w3.org/2000/svg" xmlns:xlink="http://www.w3.org/1999/xlink">
	<desc>
			Created with Pixso.
	</desc>
	<defs/>
	<path id="Vector" d="M10 20C4.47 20 0 15.52 0 10C0 4.47 4.47 0 10 0C15.52 0 20 4.47 20 10C20 15.52 15.52 20 10 20ZM6.89 11.17L6.9 11.16L7.77 14.03C7.88 14.34 8.03 14.4 8.22 14.37C8.41 14.34 8.51 14.24 8.63 14.13L9.82 12.98L12.37 14.87C12.84 15.12 13.17 14.99 13.29 14.43L14.94 6.61C15.13 5.88 14.81 5.59 14.24 5.82L4.51 9.58C3.84 9.85 3.85 10.22 4.39 10.39L6.89 11.17L6.89 11.17Z" fill="#333333" fill-opacity="1.000000" fill-rule="nonzero"/>
</svg>
