<svg width="158.583313" height="149.973083" viewBox="0 0 158.583 149.973" fill="none" xmlns="http://www.w3.org/2000/svg" xmlns:xlink="http://www.w3.org/1999/xlink">
	<desc>
			Created with Pixso.
	</desc>
	<defs>
		<linearGradient x1="73.883759" y1="-21.406551" x2="75.229454" y2="209.462372" id="paint_linear_62_417_0" gradientUnits="userSpaceOnUse">
			<stop stop-color="#F9F9F9"/>
			<stop offset="1.000000" stop-color="#EFEFEF"/>
		</linearGradient>
	</defs>
	<path id="Vector" d="M1.6 108.19C2.21 107.97 2.86 107.67 3.36 107.25C3.96 106.75 4.2 106.1 4.36 105.42C4.57 104.54 4.66 103.61 4.91 102.73C5 102.41 5.18 102.28 5.26 102.23C5.46 102.09 5.65 102.05 5.84 102.07C6.06 102.08 6.36 102.17 6.56 102.54C6.59 102.59 6.63 102.67 6.65 102.78C6.67 102.86 6.68 103.11 6.7 103.22C6.75 103.48 6.79 103.73 6.83 103.99C6.95 104.85 7.02 105.58 7.42 106.37C7.96 107.44 8.49 108.1 9.22 108.39C9.93 108.67 10.77 108.62 11.85 108.4C11.95 108.37 12.05 108.35 12.15 108.33C12.63 108.25 13.08 108.56 13.18 109.04C13.27 109.51 12.97 109.97 12.5 110.07C12.4 110.1 12.3 110.12 12.21 110.14C10.75 110.5 9.06 111.78 8.08 112.91C7.78 113.26 7.34 114.23 6.89 114.85C6.56 115.31 6.18 115.61 5.87 115.71C5.66 115.78 5.48 115.77 5.33 115.74C5.12 115.69 4.94 115.57 4.81 115.39C4.73 115.29 4.67 115.15 4.63 114.98C4.62 114.9 4.62 114.69 4.62 114.59C4.52 114.28 4.41 113.97 4.33 113.65C4.13 112.89 3.75 112.4 3.3 111.77C2.87 111.17 2.41 110.8 1.74 110.5C1.65 110.48 0.95 110.31 0.7 110.21C0.34 110.06 0.16 109.82 0.1 109.69C-0.01 109.46 -0.02 109.27 0 109.11C0.04 108.87 0.14 108.67 0.33 108.5C0.45 108.4 0.63 108.3 0.86 108.25C1.04 108.21 1.53 108.19 1.6 108.19ZM5.73 106.95C5.76 107.02 5.8 107.09 5.83 107.17C6.62 108.74 7.5 109.61 8.57 110.04L8.6 110.05C7.89 110.58 7.24 111.18 6.75 111.75C6.54 111.98 6.27 112.47 5.98 112.97C5.72 112.1 5.28 111.5 4.74 110.74C4.32 110.15 3.89 109.72 3.35 109.36C3.77 109.15 4.16 108.9 4.51 108.61C5.08 108.12 5.46 107.56 5.73 106.95Z" fill="#1749B3" fill-opacity="1.000000" fill-rule="evenodd"/>
	<circle id="Ellipse " cx="17.299988" cy="3.460007" r="3.460000" fill="#1749B3" fill-opacity="1.000000"/>
	<circle id="Ellipse" cx="155.123291" cy="75.543243" r="3.460000" fill="#1749B3" fill-opacity="1.000000"/>
	<path id="Background" d="M140.13 65.74C140.13 102.04 110.69 131.48 74.39 131.48C38.08 131.48 8.64 102.04 8.64 65.74C8.64 29.43 38.08 0 74.39 0C110.69 0 140.13 29.43 140.13 65.74Z" fill="url(#paint_linear_62_417_0)" fill-opacity="1.000000" fill-rule="evenodd"/>
	<path id="Bell up" d="" fill="#011625" fill-opacity="1.000000" fill-rule="nonzero"/>
	<path id="Bell circle" d="M99.24 91.71C99.24 105.74 87.87 117.12 73.84 117.12C59.81 117.12 48.43 105.74 48.43 91.71C48.43 77.68 59.81 66.31 73.84 66.31C87.87 66.31 99.24 77.68 99.24 91.71Z" fill="#FE0000" fill-opacity="1.000000" fill-rule="evenodd"/>
	<path id="Vector" d="M114.04 72.83L114.04 53.34C114.04 42.71 109.82 32.51 102.3 25C94.78 17.48 84.59 13.26 73.96 13.26C63.33 13.26 53.14 17.48 45.62 25C38.1 32.51 33.88 42.71 33.88 53.34L33.88 72.83C33.88 77.3 32.61 81.69 30.23 85.48C27.84 89.27 24.43 92.3 20.39 94.23C19.46 94.67 18.68 95.37 18.13 96.24C17.58 97.11 17.29 98.12 17.29 99.15L17.29 99.25C17.29 99.63 17.37 99.99 17.51 100.34C17.65 100.68 17.86 100.99 18.12 101.26C18.38 101.52 18.69 101.73 19.04 101.87C19.38 102.01 19.75 102.08 20.12 102.08L127.8 102.08C128.17 102.08 128.53 102.01 128.88 101.87C129.22 101.73 129.53 101.52 129.79 101.26C130.06 100.99 130.27 100.68 130.41 100.34C130.55 99.99 130.62 99.63 130.62 99.25L130.62 99.15C130.62 98.12 130.33 97.12 129.78 96.25C129.24 95.38 128.46 94.69 127.53 94.25C123.49 92.32 120.08 89.28 117.69 85.49C115.3 81.7 114.04 77.31 114.04 72.83Z" fill="#E1DCEB" fill-opacity="1.000000" fill-rule="nonzero"/>
	<path id="Stroke" d="M130.9 102.07L17.29 102.07L17.29 98.6L130.9 98.6L130.9 102.07Z" fill="#011625" fill-opacity="1.000000" fill-rule="evenodd"/>
	<path id="Vector" d="M42.73 110.89C39.97 113.39 37.21 115.84 34.52 118.41C33.94 118.97 33.92 119.88 34.47 120.45C35.02 121.03 35.94 121.05 36.51 120.5C39.19 117.94 41.92 115.51 44.66 113.03C45.26 112.49 45.3 111.58 44.77 110.99C44.24 110.4 43.32 110.35 42.73 110.89Z" fill="#011625" fill-opacity="1.000000" fill-rule="evenodd"/>
	<path id="Vector" d="M105.14 110.89C107.88 113.39 110.62 115.84 113.29 118.42C113.87 118.97 113.89 119.88 113.34 120.45C112.78 121.03 111.87 121.05 111.3 120.5C108.64 117.93 105.92 115.51 103.19 113.03C102.61 112.49 102.56 111.58 103.1 110.99C103.63 110.4 104.55 110.35 105.14 110.89Z" fill="#011625" fill-opacity="1.000000" fill-rule="evenodd"/>
	<path id="Vector" d="M72.17 127.03C72.12 130.75 72.05 134.42 72.11 138.14C72.12 138.94 72.77 139.57 73.57 139.56C74.37 139.55 75 138.89 74.99 138.09C74.93 134.4 75 130.75 75.05 127.06C75.05 126.26 74.42 125.61 73.63 125.6C72.83 125.6 72.17 126.24 72.17 127.03Z" fill="#011625" fill-opacity="1.000000" fill-rule="evenodd"/>
</svg>
