<svg width="141.028076" height="114.256653" viewBox="0 0 141.028 114.257" fill="none" xmlns="http://www.w3.org/2000/svg" xmlns:xlink="http://www.w3.org/1999/xlink">
	<desc>
			Created with Pixso.
	</desc>
	<defs>
		<linearGradient x1="67.805077" y1="-18.602381" x2="68.988770" y2="182.023712" id="paint_linear_62_24_0" gradientUnits="userSpaceOnUse">
			<stop stop-color="#E9E6E6"/>
			<stop offset="0.276042" stop-color="#F7F7F7"/>
		</linearGradient>
	</defs>
	<path id="Background" d="M126.01 57.12C126.01 88.67 100.15 114.25 68.25 114.25C36.34 114.25 10.48 88.67 10.48 57.12C10.48 25.57 36.34 0 68.25 0C100.15 0 126.01 25.57 126.01 57.12Z" fill="url(#paint_linear_62_24_0)" fill-opacity="1.000000" fill-rule="evenodd"/>
	<path id="Vector" d="M118.08 93.54C118.61 93.35 119.16 93.11 119.59 92.75C120.1 92.33 120.3 91.78 120.44 91.21C120.62 90.47 120.69 89.68 120.91 88.94C120.99 88.67 121.14 88.56 121.21 88.52C121.37 88.4 121.54 88.37 121.7 88.38C121.89 88.39 122.15 88.47 122.32 88.78C122.34 88.82 122.37 88.89 122.39 88.98C122.41 89.05 122.42 89.26 122.44 89.35C122.48 89.57 122.51 89.78 122.54 90C122.65 90.73 122.71 91.34 123.05 92.01C123.51 92.91 123.96 93.47 124.59 93.71C125.19 93.95 125.91 93.9 126.83 93.72C126.91 93.7 127 93.68 127.09 93.66C127.49 93.59 127.88 93.86 127.96 94.26C128.04 94.66 127.78 95.04 127.38 95.13C127.29 95.15 127.21 95.17 127.13 95.18C125.89 95.49 124.45 96.57 123.62 97.52C123.36 97.82 122.98 98.63 122.6 99.16C122.31 99.54 121.99 99.8 121.73 99.89C121.55 99.95 121.4 99.94 121.27 99.91C121.09 99.86 120.94 99.76 120.82 99.61C120.76 99.53 120.7 99.41 120.67 99.27C120.66 99.2 120.66 99.02 120.66 98.94C120.58 98.67 120.49 98.41 120.42 98.14C120.25 97.5 119.92 97.1 119.53 96.56C119.17 96.06 118.78 95.74 118.21 95.49C118.13 95.47 117.53 95.33 117.32 95.24C117.01 95.12 116.86 94.92 116.81 94.81C116.72 94.62 116.71 94.45 116.73 94.32C116.75 94.12 116.85 93.94 117.01 93.8C117.11 93.72 117.26 93.63 117.46 93.59C117.61 93.56 118.03 93.54 118.08 93.54ZM121.61 92.49C121.63 92.56 121.66 92.62 121.7 92.68C122.37 94 123.12 94.74 124.03 95.1L124.06 95.11C123.45 95.56 122.9 96.06 122.47 96.54C122.3 96.74 122.07 97.15 121.82 97.57C121.6 96.84 121.23 96.33 120.76 95.69C120.41 95.2 120.04 94.83 119.58 94.53C119.94 94.35 120.27 94.14 120.57 93.89C121.06 93.48 121.38 93.01 121.61 92.49Z" fill="#1749B3" fill-opacity="1.000000" fill-rule="evenodd"/>
	<ellipse id="Ellipse 67" cx="2.735718" cy="45.995697" rx="2.735723" ry="2.705643" fill="#1749B3" fill-opacity="1.000000"/>
	<path id="Vector" d="M26.39 21.75C25.68 19.32 24.28 17.43 22.14 16.06C21.88 15.9 21.81 15.57 21.97 15.32C22.13 15.06 22.47 14.99 22.72 15.15C25.1 16.67 26.65 18.76 27.43 21.44C27.52 21.73 27.35 22.03 27.06 22.11C26.77 22.2 26.47 22.03 26.39 21.75Z" fill="#011625" fill-opacity="1.000000" fill-rule="evenodd"/>
	<path id="Vector" d="M24.39 18.81Q23.39 17.46 21.87 16.49L21.87 16.49Q21.77 16.43 21.69 16.35Q21.62 16.28 21.57 16.2Q21.51 16.12 21.47 16.03Q21.43 15.93 21.41 15.83Q21.38 15.73 21.38 15.62Q21.38 15.53 21.4 15.43Q21.42 15.33 21.45 15.24Q21.49 15.14 21.55 15.04Q21.6 14.97 21.66 14.9Q21.74 14.81 21.84 14.75Q21.92 14.69 22.01 14.65Q22.1 14.61 22.21 14.59Q22.31 14.57 22.41 14.56Q22.51 14.56 22.61 14.58Q22.71 14.6 22.8 14.63Q22.9 14.67 23 14.73Q24.78 15.87 25.99 17.45Q27.28 19.13 27.91 21.3Q27.94 21.4 27.95 21.5Q27.96 21.61 27.95 21.72Q27.94 21.81 27.91 21.9Q27.88 22 27.83 22.1Q27.78 22.19 27.71 22.27Q27.65 22.34 27.57 22.4Q27.49 22.47 27.4 22.51Q27.31 22.57 27.2 22.6Q27.09 22.63 26.98 22.64Q26.88 22.64 26.79 22.63Q26.69 22.62 26.59 22.59Q26.5 22.56 26.41 22.51Q26.31 22.46 26.23 22.39Q26.16 22.33 26.1 22.25Q26.03 22.18 25.98 22.09Q25.93 21.99 25.9 21.88Q25.39 20.15 24.39 18.81ZM26.39 21.75C25.68 19.32 24.28 17.43 22.14 16.06C21.88 15.9 21.81 15.57 21.97 15.32C22.13 15.06 22.47 14.99 22.72 15.15C25.1 16.67 26.65 18.76 27.43 21.44C27.52 21.73 27.35 22.03 27.06 22.11C26.77 22.2 26.47 22.03 26.39 21.75Z" fill="#011625" fill-opacity="1.000000" fill-rule="evenodd"/>
	<path id="Vector" d="M50.85 18.46C51.27 18.95 51.65 19.49 51.97 20.06C52.12 20.31 52.37 20.84 52.41 21.3C52.45 21.8 52.28 22.21 51.85 22.43C51.28 22.72 50.82 22.69 50.47 22.51C50.13 22.34 49.86 22.01 49.7 21.57C49.38 20.73 49.42 19.43 49.59 18.7C49.14 18.23 48.65 17.81 48.12 17.44C44.18 14.66 38.4 15.69 33.95 19.84C32.39 21.29 31.64 24.35 31.25 27.64C30.65 32.77 30.99 38.51 31.04 40.18C31.05 40.6 31.01 40.84 30.99 40.89C30.89 41.14 30.71 41.2 30.58 41.22C30.4 41.25 30.25 41.22 30.13 41.16C29.97 41.08 29.84 40.93 29.78 40.7C29.75 40.58 29.74 40.41 29.75 40.22C29.75 40.09 29.78 39.95 29.75 39.86C29.58 39.27 29.38 38.69 29.18 38.11C28.51 36.16 27.64 34.34 26.68 32.51C23.63 26.72 20.68 20.59 15.68 16.17C15.46 15.98 15.43 15.63 15.63 15.41C15.83 15.19 16.18 15.17 16.4 15.37C21.5 19.87 24.54 26.1 27.65 32.01C28.46 33.56 29.21 35.12 29.84 36.74C29.77 33.87 29.8 29.89 30.33 26.37C30.8 23.23 31.69 20.46 33.2 19.05C38.08 14.5 44.43 13.51 48.75 16.56C49.21 16.88 49.65 17.24 50.06 17.63C52.32 13.57 57.15 11.95 61.42 13.89C61.7 14.01 61.82 14.33 61.69 14.61C61.57 14.88 61.24 15 60.97 14.87C57.12 13.13 52.75 14.69 50.85 18.46ZM50.53 19.82C50.71 20.07 50.87 20.32 51.03 20.59C51.11 20.73 51.25 21.01 51.3 21.27C51.32 21.34 51.32 21.43 51.32 21.48C51.17 21.55 51.05 21.59 50.96 21.54C50.84 21.48 50.77 21.34 50.72 21.19C50.57 20.8 50.52 20.29 50.53 19.82Z" fill="#011625" fill-opacity="1.000000" fill-rule="evenodd"/>
	<path id="Vector" d="M51.45 18.4Q51.99 19.07 52.41 19.81L52.41 19.81Q52.85 20.58 52.91 21.26Q52.97 21.92 52.68 22.35Q52.48 22.68 52.08 22.88Q51.37 23.23 50.75 23.13Q50.49 23.08 50.25 22.96Q50.13 22.91 50.03 22.84Q49.5 22.48 49.23 21.75Q48.74 20.46 49.04 18.86Q48.48 18.31 47.83 17.85Q46.96 17.24 46 16.88Q43.88 16.1 41.31 16.54Q40.98 16.59 40.66 16.67Q37.25 17.45 34.29 20.21Q32.43 21.94 31.75 27.7Q31.23 32.13 31.51 39.31Q31.54 39.95 31.54 40.17Q31.56 40.85 31.45 41.1Q31.35 41.34 31.16 41.5Q30.96 41.66 30.67 41.72Q30.42 41.76 30.18 41.71Q30.04 41.68 29.9 41.61Q29.71 41.5 29.57 41.35Q29.38 41.14 29.3 40.84Q29.23 40.59 29.24 40.21Q29.24 40.15 29.25 40.06L29.27 40Q29.12 39.5 28.78 38.5Q28.73 38.35 28.7 38.28Q27.86 35.84 26.24 32.75Q25.98 32.26 25.46 31.27Q19.86 20.53 15.35 16.55Q15.18 16.41 15.1 16.23Q15.01 16.05 15 15.83Q14.98 15.62 15.05 15.43Q15.11 15.24 15.26 15.07Q15.6 14.69 15.97 14.66Q16.34 14.64 16.74 14.99Q21.52 19.21 27.38 30.41Q27.85 31.32 28.09 31.78Q28.77 33.06 29.31 34.22Q29.33 29.62 29.83 26.29Q30.66 20.74 32.86 18.68Q36.05 15.7 39.77 14.74Q40.43 14.57 41.11 14.46Q44.1 13.98 46.6 14.88Q47.88 15.33 49.04 16.15Q49.51 16.48 49.94 16.85Q50.83 15.45 52.06 14.49Q53.28 13.55 54.83 13.03Q56.37 12.52 57.9 12.55Q59.77 12.59 61.63 13.43Q61.83 13.52 61.96 13.67Q62.1 13.81 62.18 14.01Q62.25 14.22 62.25 14.42Q62.24 14.62 62.15 14.81Q61.93 15.29 61.58 15.42Q61.23 15.55 60.76 15.33Q59.27 14.65 57.78 14.65Q56.56 14.64 55.35 15.07Q54.15 15.49 53.23 16.25Q52.16 17.11 51.45 18.4ZM50.85 18.46C51.27 18.95 51.65 19.49 51.97 20.06C52.12 20.31 52.37 20.84 52.41 21.3C52.45 21.8 52.28 22.21 51.85 22.43C51.28 22.72 50.82 22.69 50.47 22.51C50.13 22.34 49.86 22.01 49.7 21.57C49.38 20.73 49.42 19.43 49.59 18.7C49.14 18.23 48.65 17.81 48.12 17.44C44.18 14.66 38.4 15.69 33.95 19.84C32.39 21.29 31.64 24.35 31.25 27.64C30.72 32.11 30.92 37.02 31.01 39.33C31.02 39.68 31.03 39.97 31.04 40.18C31.05 40.6 31.01 40.84 30.99 40.89C30.89 41.14 30.71 41.2 30.58 41.22C30.4 41.25 30.25 41.22 30.13 41.16C29.97 41.08 29.84 40.93 29.78 40.7C29.75 40.58 29.74 40.41 29.75 40.22C29.75 40.18 29.75 40.14 29.75 40.1C29.76 40.01 29.77 39.92 29.75 39.86C29.58 39.27 29.38 38.69 29.18 38.11C28.51 36.16 27.64 34.34 26.68 32.51C23.63 26.72 20.68 20.59 15.68 16.17C15.46 15.98 15.43 15.63 15.63 15.41C15.83 15.19 16.18 15.17 16.4 15.37C21.5 19.87 24.54 26.1 27.65 32.01C28.25 33.15 28.81 34.29 29.31 35.46C29.49 35.88 29.67 36.31 29.84 36.74C29.83 36.3 29.82 35.84 29.81 35.36C29.79 32.66 29.88 29.35 30.33 26.37C30.8 23.23 31.69 20.46 33.2 19.05C38.08 14.5 44.43 13.51 48.75 16.56C49.07 16.78 49.38 17.03 49.68 17.28C49.81 17.4 49.93 17.51 50.06 17.63C50.14 17.48 50.23 17.33 50.32 17.19C52.68 13.46 57.31 12.02 61.42 13.89C61.7 14.01 61.82 14.33 61.69 14.61C61.57 14.88 61.24 15 60.97 14.87C57.12 13.13 52.75 14.69 50.85 18.46ZM51.11 20.74C51.08 20.68 51.05 20.63 51.03 20.59C50.87 20.32 50.71 20.07 50.53 19.82C50.52 20.18 50.55 20.58 50.63 20.92C50.66 21.02 50.68 21.11 50.72 21.19C50.75 21.27 50.78 21.34 50.81 21.4C50.83 21.43 50.85 21.46 50.87 21.48C50.9 21.51 50.92 21.53 50.96 21.54C51.05 21.59 51.17 21.55 51.32 21.48C51.32 21.43 51.32 21.34 51.3 21.27C51.26 21.08 51.18 20.89 51.11 20.74Z" fill="#011625" fill-opacity="1.000000" fill-rule="evenodd"/>
	<rect id="Rectangle Background" x="41.591309" y="29.639648" rx="12.080000" width="99.436768" height="35.451530" fill="#011625" fill-opacity="1.000000"/>
	<rect id="Title" x="82.637939" y="41.844238" rx="2.324690" width="33.531006" height="4.649379" fill="#CCC6D9" fill-opacity="1.000000"/>
	<rect id="Text" x="50.263184" y="48.818359" rx="2.324691" width="66.074730" height="4.649382" fill="#FFFFFF" fill-opacity="1.000000"/>
	<ellipse id="Person" cx="128.309448" cy="47.655975" rx="5.781208" ry="5.811727" fill="#E1DCEB" fill-opacity="1.000000"/>
	<rect id="Rectangle Background" y="59.279541" rx="12.080000" width="99.436768" height="35.451530" fill="#E1DCEB" fill-opacity="1.000000"/>
	<rect id="Title" x="24.859131" y="71.484131" rx="2.324690" width="33.530998" height="4.649379" fill="#FE0000" fill-opacity="1.000000"/>
	<rect id="Text" x="24.859131" y="78.458252" rx="2.324692" width="66.074722" height="4.649384" fill="#FFFFFF" fill-opacity="1.000000"/>
	<ellipse id="Person" cx="14.453003" cy="77.295868" rx="5.781207" ry="5.811727" fill="#FE0000" fill-opacity="1.000000"/>
</svg>
