<svg width="185.000000" height="185.000000" viewBox="0 0 185 185" fill="none" xmlns="http://www.w3.org/2000/svg" xmlns:xlink="http://www.w3.org/1999/xlink">
	<desc>
			Created with Pixso.
	</desc>
	<defs>
		<clipPath id="clip188_120">
			<rect id="Illustrations" rx="-0.500000" width="183.999985" height="183.999985" transform="translate(0.500000 0.500000)" fill="white" fill-opacity="0"/>
		</clipPath>
		<linearGradient x1="94.909302" y1="-2.531934" x2="96.435280" y2="258.808105" id="paint_linear_62_258_0" gradientUnits="userSpaceOnUse">
			<stop stop-color="#E9E6E6"/>
			<stop offset="0.276042" stop-color="#F7F7F7"/>
		</linearGradient>
	</defs>
	<rect id="Illustrations" rx="-0.500000" width="183.999985" height="183.999985" transform="translate(0.500000 0.500000)" fill="#FFFFFF" fill-opacity="0"/>
	<g clip-path="url(#clip188_120)">
		<path id="Background" d="M169.9 96.11C169.9 137.21 136.58 170.53 95.48 170.53C54.38 170.53 21.06 137.21 21.06 96.11C21.06 55.01 54.38 21.7 95.48 21.7C136.58 21.7 169.9 55.01 169.9 96.11Z" fill="url(#paint_linear_62_258_0)" fill-opacity="1.000000" fill-rule="evenodd"/>
		<path id="Vector" d="M81.89 39.06L57.83 105.13C50.53 125.16 71.02 144.05 90.39 135.15L147.83 108.79L81.89 39.06Z" fill="#E1DCEB" fill-opacity="1.000000" fill-rule="evenodd"/>
		<ellipse id="Shadow" rx="11.005265" ry="48.237167" transform="matrix(0.729151 -0.684352 0.684353 0.729151 115.6 73.4996)" fill="#011625" fill-opacity="1.000000"/>
		<ellipse id="Shadow" rx="10.688599" ry="47.920502" transform="matrix(0.729151 -0.684352 0.684353 0.729151 115.6 73.4996)" stroke="#011625" stroke-opacity="1.000000" stroke-width="0.633333"/>
		<mask id="mask62_261" mask-type="alpha" maskUnits="userSpaceOnUse" x="38.166748" y="39.068115" width="109.665894" height="120.065277">
			<path id="Vector mask" d="M81.89 39.06L57.83 105.13C50.53 125.16 71.02 144.05 90.39 135.15L147.83 108.79L81.89 39.06Z" fill="#E1DCEB" fill-opacity="1.000000" fill-rule="evenodd"/>
		</mask>
		<g mask="url(#mask62_261)">
			<path id="Line" d="M80.42 96.16C67.21 78.86 60.52 58.23 58.37 44.38L69.01 42.73C70.95 55.19 77.07 74.03 88.98 89.62C100.77 105.07 118.02 117.11 142.63 117.11L142.63 127.88C113.91 127.88 93.74 113.61 80.42 96.16Z" fill="#011625" fill-opacity="1.000000" fill-rule="evenodd"/>
		</g>
		<g mask="url(#mask62_261)">
			<path id="Line" d="M81.84 92.85C68.63 75.55 61.94 54.92 59.79 41.07L70.42 39.42C72.37 51.88 78.49 70.73 90.4 86.32C102.19 101.76 119.44 113.8 144.05 113.8L144.05 124.57C115.33 124.57 95.16 110.3 81.84 92.85Z" fill="#FFFFFF" fill-opacity="1.000000" fill-rule="evenodd"/>
		</g>
		<g mask="url(#mask62_261)">
			<path id="Line" d="M64.82 117.9C51.61 100.6 44.93 79.97 42.77 66.13L53.41 64.47C55.35 76.93 61.47 95.78 73.38 111.37C85.17 126.81 102.42 138.86 127.03 138.86L127.03 149.62C98.31 149.62 78.14 135.35 64.82 117.9Z" fill="#FFFFFF" fill-opacity="1.000000" fill-rule="evenodd"/>
		</g>
		<circle id="Ellipse" cx="111.000000" cy="131.899902" r="19.000002" fill="#FE0000" fill-opacity="1.000000"/>
		<path id="Check icon" d="M118.68 126.13C119.42 126.88 119.41 128.08 118.66 128.82L109.64 137.68C108.9 138.41 107.72 138.41 106.98 137.68L103.33 134.1C102.58 133.36 102.57 132.16 103.31 131.41C104.04 130.66 105.25 130.65 105.99 131.39L108.31 133.66L116 126.11C116.75 125.37 117.95 125.38 118.68 126.13Z" fill="#FFFFFF" fill-opacity="1.000000" fill-rule="evenodd"/>
		<path id="Vector" d="M148.44 41.3C149.78 37.92 150.17 34.54 150.75 31.01C150.86 30.32 150.39 29.67 149.7 29.55C149.01 29.44 148.36 29.91 148.25 30.6C147.7 33.95 147.35 37.16 146.09 40.37C145.83 41.02 146.15 41.76 146.8 42.01C147.45 42.27 148.19 41.95 148.44 41.3Z" fill="#011625" fill-opacity="1.000000" fill-rule="evenodd"/>
		<path id="Vector" d="M148.44 41.3C149.78 37.92 150.17 34.54 150.75 31.01C150.86 30.32 150.39 29.67 149.7 29.55C149.01 29.44 148.36 29.91 148.25 30.6C147.7 33.95 147.35 37.16 146.09 40.37C145.83 41.02 146.15 41.76 146.8 42.01C147.45 42.27 148.19 41.95 148.44 41.3ZM150.12 30.9L150.12 30.9Q150.04 31.42 149.88 32.44Q149.65 33.92 149.52 34.65Q149.31 35.86 149.11 36.82Q148.6 39.18 147.85 41.07Q147.81 41.19 147.73 41.27Q147.64 41.36 147.52 41.41Q147.4 41.47 147.28 41.47Q147.16 41.47 147.03 41.42Q146.91 41.38 146.82 41.29Q146.74 41.21 146.68 41.09Q146.63 40.97 146.63 40.85Q146.63 40.73 146.67 40.61Q147.4 38.76 147.89 36.46Q148.09 35.54 148.28 34.39Q148.4 33.7 148.62 32.32Q148.78 31.24 148.87 30.7Q148.89 30.57 148.96 30.47Q149.02 30.37 149.13 30.29Q149.24 30.21 149.36 30.18Q149.47 30.16 149.6 30.18Q149.73 30.2 149.84 30.27Q149.94 30.33 150.01 30.43Q150.09 30.54 150.12 30.66Q150.14 30.78 150.12 30.9Z" fill="#011625" fill-opacity="1.000000" fill-rule="evenodd"/>
		<path id="Vector" d="M154.87 49.06C161.43 44.51 167.87 38.39 172.65 31.98C173.07 31.42 172.95 30.62 172.39 30.21C171.83 29.79 171.03 29.91 170.62 30.47C165.99 36.67 159.77 42.59 153.42 46.98C152.84 47.38 152.7 48.17 153.1 48.74C153.5 49.31 154.29 49.46 154.87 49.06Z" fill="#011625" fill-opacity="1.000000" fill-rule="evenodd"/>
		<path id="Vector" d="M154.87 49.06C161.43 44.51 167.87 38.39 172.65 31.98C173.07 31.42 172.95 30.62 172.39 30.21C171.83 29.79 171.03 29.91 170.62 30.47C165.99 36.67 159.77 42.59 153.42 46.98C152.84 47.38 152.7 48.17 153.1 48.74C153.5 49.31 154.29 49.46 154.87 49.06ZM172.14 31.6L172.14 31.6Q168.61 36.33 163.99 40.76Q159.43 45.13 154.5 48.54Q154.4 48.61 154.28 48.64Q154.16 48.66 154.03 48.64Q153.9 48.62 153.8 48.55Q153.7 48.48 153.62 48.38Q153.55 48.27 153.52 48.16Q153.5 48.04 153.52 47.91Q153.54 47.78 153.61 47.68Q153.67 47.58 153.78 47.5Q158.62 44.15 163.1 39.86Q167.65 35.5 171.12 30.84Q171.2 30.74 171.3 30.68Q171.41 30.62 171.54 30.6Q171.67 30.58 171.79 30.61Q171.91 30.64 172.01 30.72Q172.12 30.79 172.18 30.9Q172.24 31 172.26 31.13Q172.28 31.26 172.25 31.38Q172.22 31.49 172.14 31.6Z" fill="#011625" fill-opacity="1.000000" fill-rule="evenodd"/>
		<path id="Vector" d="M155.57 55.08C160.8 56.68 166.52 55.92 171.67 54.45C172.34 54.25 172.73 53.55 172.54 52.88C172.35 52.21 171.65 51.83 170.97 52.02C166.28 53.36 161.07 54.12 156.31 52.67C155.64 52.46 154.93 52.84 154.73 53.5C154.52 54.17 154.9 54.88 155.57 55.08Z" fill="#011625" fill-opacity="1.000000" fill-rule="evenodd"/>
		<path id="Vector" d="M155.57 55.08C160.8 56.68 166.52 55.92 171.67 54.45C172.34 54.25 172.73 53.55 172.54 52.88C172.35 52.21 171.65 51.83 170.97 52.02C166.28 53.36 161.07 54.12 156.31 52.67C155.64 52.46 154.93 52.84 154.73 53.5C154.52 54.17 154.9 54.88 155.57 55.08ZM171.72 53.72Q171.63 53.8 171.5 53.84L171.5 53.84Q167.25 55.05 163.61 55.28Q159.3 55.56 155.75 54.48Q155.63 54.44 155.53 54.36Q155.44 54.29 155.38 54.17Q155.31 54.05 155.3 53.93Q155.29 53.81 155.33 53.69Q155.37 53.57 155.44 53.48Q155.52 53.38 155.64 53.32Q155.75 53.26 155.88 53.25Q156 53.23 156.12 53.27Q159.55 54.32 163.71 54.02Q167.11 53.78 171.15 52.62Q171.27 52.59 171.39 52.6Q171.51 52.62 171.63 52.68Q171.75 52.74 171.82 52.84Q171.9 52.93 171.93 53.06Q171.97 53.18 171.96 53.3Q171.94 53.42 171.88 53.53Q171.81 53.65 171.72 53.72Z" fill="#011625" fill-opacity="1.000000" fill-rule="evenodd"/>
		<circle id="Circle down" cx="155.966553" cy="64.133255" r="3.800000" fill="#1749B3" fill-opacity="1.000000"/>
		<circle id="Circle up" cx="124.299927" cy="24.866653" r="3.800000" fill="#1749B3" fill-opacity="1.000000"/>
		<path id="Star " d="M131.61 41.62C131.28 40.26 129.35 40.26 129.02 41.62L128.59 43.38C128.48 43.86 128.1 44.24 127.61 44.36L125.85 44.78C124.5 45.11 124.5 47.04 125.85 47.37L127.61 47.8C128.1 47.91 128.48 48.29 128.59 48.78L129.02 50.54C129.35 51.89 131.28 51.89 131.61 50.54L132.03 48.78C132.15 48.29 132.53 47.91 133.01 47.8L134.77 47.37C136.13 47.04 136.13 45.11 134.77 44.78L133.01 44.36C132.53 44.24 132.15 43.86 132.03 43.38L131.61 41.62Z" fill="#1749B3" fill-opacity="1.000000" fill-rule="nonzero"/>
		<path id="Stroke doodle" d="M115.41 12.39C115.79 13.37 115.31 14.47 114.33 14.86C111.55 15.95 107.97 19.48 105.59 23.88C103.77 27.22 102.89 30.6 103.26 33.36C104.38 31.77 105.71 30.47 107.26 29.63C110.04 28.12 113.21 28.28 116.27 30.37C118.95 32.2 120.04 34.8 119.76 37.39C119.48 39.86 117.97 42.1 115.92 43.51C113.84 44.93 111.08 45.59 108.23 44.72C106.62 44.22 105.07 43.27 103.65 41.82C102.3 47.08 102.35 53.67 104.58 59.5C104.96 60.48 104.47 61.58 103.49 61.95C102.51 62.33 101.41 61.84 101.04 60.86C98.09 53.17 98.47 44.39 100.87 38C100.81 37.87 100.74 37.75 100.67 37.62C98.14 32.85 99.66 26.84 102.25 22.06C104.86 17.25 109 12.87 112.94 11.32C113.92 10.93 115.02 11.42 115.41 12.39ZM105.14 37.67C106.58 39.71 108.07 40.69 109.35 41.08C110.96 41.58 112.53 41.22 113.77 40.37C115.04 39.5 115.84 38.19 115.98 36.96C116.1 35.85 115.71 34.59 114.13 33.51C112.13 32.15 110.48 32.21 109.07 32.97C107.67 33.73 106.27 35.32 105.14 37.67Z" fill="#E3E3E3" fill-opacity="1.000000" fill-rule="evenodd"/>
		<path id="Stroke" d="M176.74 86.7C156.83 79.3 141.58 88.5 136.66 93.71C135.45 94.98 133.45 95.03 132.18 93.83C130.91 92.63 130.85 90.63 132.06 89.36C138.32 82.74 156.13 72.28 178.95 80.76C180.59 81.37 181.42 83.2 180.81 84.84C180.2 86.48 178.38 87.31 176.74 86.7Z" fill="#CCC6D9" fill-opacity="1.000000" fill-rule="evenodd"/>
		<path id="Vector" d="M156.48 93.36C156.92 93.19 157.39 92.98 157.75 92.66C158.18 92.29 158.36 91.81 158.47 91.31C158.62 90.66 158.68 89.97 158.87 89.32C158.93 89.08 159.06 88.99 159.12 88.95C159.26 88.85 159.4 88.82 159.53 88.83C159.69 88.84 159.91 88.9 160.05 89.18C160.07 89.22 160.1 89.28 160.12 89.36C160.13 89.42 160.14 89.6 160.15 89.68C160.19 89.87 160.22 90.06 160.25 90.25C160.34 90.89 160.39 91.43 160.67 92.01C161.06 92.81 161.45 93.29 161.97 93.51C162.48 93.71 163.09 93.68 163.86 93.51C163.94 93.49 164.01 93.48 164.08 93.47C164.42 93.4 164.75 93.63 164.82 93.98C164.88 94.33 164.67 94.68 164.33 94.75C164.26 94.77 164.19 94.78 164.12 94.8C163.07 95.06 161.86 96.02 161.15 96.85C160.93 97.11 160.62 97.82 160.29 98.28C160.05 98.62 159.78 98.84 159.56 98.92C159.4 98.98 159.28 98.97 159.17 98.94C159.02 98.9 158.89 98.82 158.79 98.68C158.74 98.61 158.69 98.51 158.67 98.38C158.66 98.32 158.65 98.16 158.66 98.09C158.59 97.86 158.51 97.63 158.45 97.39C158.31 96.83 158.03 96.48 157.7 96C157.4 95.56 157.07 95.29 156.58 95.07C156.52 95.05 156.02 94.92 155.84 94.85C155.57 94.74 155.45 94.56 155.4 94.47C155.33 94.3 155.32 94.16 155.34 94.04C155.36 93.86 155.44 93.71 155.57 93.59C155.66 93.51 155.78 93.44 155.95 93.4C156.08 93.37 156.43 93.36 156.48 93.36ZM159.45 92.44C159.48 92.49 159.5 92.55 159.53 92.6C160.1 93.76 160.73 94.41 161.5 94.73L161.52 94.74C161.01 95.13 160.54 95.57 160.19 95.99C160.04 96.16 159.85 96.52 159.64 96.89C159.45 96.25 159.13 95.8 158.74 95.24C158.44 94.81 158.13 94.49 157.74 94.22C158.04 94.07 158.33 93.88 158.58 93.67C158.99 93.31 159.26 92.89 159.45 92.44Z" fill="#1749B3" fill-opacity="1.000000" fill-rule="evenodd"/>
		<path id="Vector" d="M41.66 103.33C42.08 99.95 43.52 97.13 46.05 94.86C46.34 94.59 46.37 94.13 46.1 93.83C45.84 93.52 45.37 93.5 45.08 93.77C42.27 96.29 40.68 99.41 40.22 103.15C40.17 103.55 40.45 103.92 40.85 103.97C41.25 104.02 41.61 103.73 41.66 103.33Z" fill="#011625" fill-opacity="1.000000" fill-rule="evenodd"/>
		<path id="Vector" d="M43.65 98.92Q44.69 96.93 46.47 95.33L46.47 95.33Q46.58 95.23 46.66 95.12Q46.74 95.01 46.79 94.89Q46.85 94.78 46.88 94.66Q46.91 94.53 46.92 94.39Q46.93 94.25 46.91 94.11Q46.89 93.99 46.85 93.87Q46.8 93.75 46.74 93.63Q46.67 93.51 46.57 93.4Q46.49 93.31 46.4 93.24Q46.28 93.15 46.14 93.08Q46.03 93.02 45.9 92.99Q45.77 92.96 45.64 92.95Q45.5 92.94 45.37 92.96Q45.24 92.98 45.12 93.02Q45 93.06 44.88 93.13Q44.76 93.2 44.65 93.3Q42.61 95.14 41.36 97.42Q39.97 99.97 39.59 103.07Q39.57 103.2 39.58 103.33Q39.59 103.47 39.63 103.61Q39.67 103.73 39.72 103.84Q39.78 103.97 39.87 104.08Q39.95 104.19 40.06 104.28Q40.15 104.36 40.26 104.42Q40.38 104.49 40.5 104.53Q40.63 104.58 40.77 104.59Q40.92 104.61 41.07 104.6Q41.19 104.59 41.31 104.55Q41.44 104.52 41.55 104.46Q41.67 104.4 41.78 104.32Q41.89 104.23 41.97 104.13Q42.06 104.03 42.12 103.92Q42.18 103.81 42.23 103.69Q42.27 103.55 42.29 103.41Q42.59 100.98 43.62 98.97Q43.64 98.95 43.65 98.92ZM41.66 103.33C42.08 99.95 43.52 97.13 46.05 94.86C46.34 94.59 46.37 94.13 46.1 93.83C45.84 93.52 45.37 93.5 45.08 93.77C42.27 96.29 40.68 99.41 40.22 103.15C40.17 103.55 40.45 103.92 40.85 103.97C41.25 104.02 41.61 103.73 41.66 103.33Z" fill="#011625" fill-opacity="1.000000" fill-rule="evenodd"/>
		<path id="Vector" d="M8.71 104.14C8.26 104.89 7.87 105.68 7.57 106.5C7.43 106.87 7.22 107.64 7.26 108.26C7.31 108.93 7.62 109.44 8.24 109.64C9.05 109.9 9.65 109.77 10.08 109.46C10.49 109.16 10.77 108.67 10.89 108.04C11.14 106.85 10.79 105.14 10.42 104.19C10.91 103.48 11.47 102.81 12.09 102.2C16.69 97.66 24.53 97.8 31.28 102.4C33.65 104.01 35.29 107.92 36.51 112.23C38.41 118.94 39.18 126.65 39.48 128.9C39.56 129.45 39.66 129.77 39.7 129.83C39.89 130.13 40.14 130.18 40.31 130.18C40.56 130.19 40.74 130.11 40.88 130C41.08 129.86 41.22 129.64 41.25 129.32C41.27 129.15 41.24 128.92 41.19 128.67C41.16 128.5 41.1 128.32 41.11 128.19C41.21 127.37 41.35 126.56 41.49 125.74C41.96 123 42.71 120.38 43.58 117.75C46.36 109.37 48.93 100.58 54.58 93.64C54.83 93.32 54.79 92.86 54.48 92.61C54.17 92.35 53.71 92.4 53.45 92.71C47.69 99.8 45.04 108.74 42.2 117.28C41.46 119.53 40.8 121.76 40.33 124.05C39.8 120.21 38.91 114.91 37.46 110.33C36.17 106.25 34.39 102.75 32.1 101.19C24.7 96.15 16.11 96.19 11.07 101.16C10.53 101.69 10.03 102.26 9.57 102.87C5.73 97.94 -0.99 96.8 -6.21 100.29C-6.54 100.51 -6.63 100.97 -6.41 101.3C-6.19 101.64 -5.74 101.73 -5.4 101.51C-0.7 98.36 5.39 99.51 8.71 104.14ZM9.42 105.88C9.24 106.25 9.08 106.63 8.93 107.01C8.86 107.22 8.73 107.62 8.71 107.99C8.71 108.07 8.73 108.2 8.74 108.27C8.95 108.33 9.11 108.35 9.23 108.27C9.37 108.17 9.42 107.97 9.47 107.75C9.58 107.2 9.53 106.5 9.42 105.88Z" fill="#011625" fill-opacity="1.000000" fill-rule="evenodd"/>
		<path id="Vector" d="M6.98 106.29L6.98 106.29Q6.56 107.4 6.63 108.31Q6.7 109.19 7.16 109.7Q7.5 110.07 8.04 110.24Q9.03 110.56 9.83 110.29Q10.15 110.18 10.45 109.97Q10.57 109.89 10.68 109.78Q11.31 109.2 11.52 108.17Q11.88 106.36 11.13 104.28Q11.76 103.42 12.53 102.65Q13.58 101.62 14.82 100.93Q17.42 99.47 20.87 99.51Q21.28 99.51 21.69 99.54Q26.4 99.84 30.93 102.92Q33.76 104.85 35.9 112.4Q37.54 118.19 38.71 127.83Q38.81 128.68 38.85 128.98Q38.97 129.87 39.17 130.17Q39.35 130.48 39.62 130.63Q39.91 130.8 40.29 130.82Q40.63 130.82 40.92 130.71Q41.1 130.63 41.26 130.51Q41.49 130.34 41.63 130.12Q41.84 129.81 41.88 129.39Q41.91 129.06 41.82 128.56Q41.8 128.48 41.77 128.36L41.74 128.26Q41.82 127.56 42.06 126.16Q42.1 125.95 42.12 125.85Q42.7 122.41 44.18 117.95Q44.42 117.24 44.88 115.82Q49.98 100.31 55.07 94.04Q55.5 93.51 55.45 93.03Q55.4 92.55 54.88 92.12Q54.67 91.94 54.42 91.87Q54.17 91.79 53.88 91.82Q53.61 91.84 53.38 91.96Q53.15 92.09 52.96 92.31Q47.57 98.94 42.25 115.11Q41.82 116.43 41.6 117.08Q40.95 119.03 40.48 120.77Q39.46 114.52 38.06 110.13Q35.78 102.93 32.45 100.66Q27.57 97.34 22.42 96.87Q21.56 96.79 20.7 96.79Q16.71 96.79 13.63 98.46Q12 99.35 10.63 100.71Q10.06 101.26 9.56 101.86Q8.04 100.12 6.14 99.09Q4.38 98.14 2.3 97.79Q0.16 97.44 -1.85 97.8Q-4.3 98.25 -6.56 99.76Q-7.12 100.14 -7.22 100.61Q-7.32 101.08 -6.94 101.65Q-6.56 102.22 -6.08 102.31Q-5.61 102.41 -5.05 102.03Q-3.22 100.81 -1.25 100.48Q0.35 100.21 2.05 100.53Q3.67 100.83 5.03 101.6Q6.69 102.54 7.95 104.18Q7.37 105.21 6.98 106.29ZM8.71 104.14C8.26 104.89 7.87 105.68 7.57 106.5C7.43 106.87 7.22 107.64 7.26 108.26C7.31 108.93 7.62 109.44 8.24 109.64C9.05 109.9 9.65 109.77 10.08 109.46C10.49 109.16 10.77 108.67 10.89 108.04C11.14 106.85 10.79 105.14 10.42 104.19C10.91 103.48 11.47 102.81 12.09 102.2C16.69 97.66 24.53 97.8 31.28 102.4C33.65 104.01 35.29 107.92 36.51 112.23C38.16 118.06 38.96 124.66 39.34 127.76C39.4 128.22 39.44 128.6 39.48 128.9C39.56 129.45 39.66 129.77 39.7 129.83C39.89 130.13 40.14 130.18 40.31 130.18C40.56 130.19 40.74 130.11 40.88 130C41.08 129.86 41.22 129.64 41.25 129.32C41.27 129.15 41.24 128.92 41.19 128.67C41.18 128.62 41.17 128.57 41.16 128.52C41.13 128.39 41.1 128.28 41.11 128.19C41.21 127.37 41.35 126.56 41.49 125.74C41.96 123 42.71 120.38 43.58 117.75C46.36 109.37 48.93 100.58 54.58 93.64C54.83 93.32 54.79 92.86 54.48 92.61C54.17 92.35 53.71 92.4 53.45 92.71C47.69 99.8 45.04 108.74 42.2 117.28C41.64 118.96 41.14 120.63 40.72 122.33C40.58 122.9 40.45 123.48 40.33 124.05C40.25 123.5 40.17 122.91 40.08 122.3C39.53 118.69 38.7 114.25 37.46 110.33C36.17 106.25 34.39 102.75 32.1 101.19C24.7 96.15 16.11 96.19 11.07 101.16C10.69 101.54 10.32 101.94 9.98 102.35C9.84 102.52 9.7 102.69 9.57 102.87C9.44 102.69 9.3 102.53 9.16 102.36C5.26 97.86 -1.18 96.92 -6.21 100.29C-6.54 100.51 -6.63 100.97 -6.41 101.3C-6.19 101.64 -5.74 101.73 -5.4 101.51C-0.7 98.36 5.39 99.51 8.71 104.14ZM9.53 107.23C9.52 107.41 9.5 107.59 9.47 107.75C9.44 107.89 9.41 108.02 9.35 108.12C9.35 108.14 9.34 108.15 9.32 108.17C9.3 108.21 9.27 108.24 9.23 108.27C9.11 108.35 8.95 108.33 8.74 108.27C8.73 108.2 8.71 108.07 8.71 107.99C8.73 107.66 8.83 107.32 8.9 107.1C8.91 107.07 8.92 107.04 8.93 107.01C9.08 106.63 9.24 106.25 9.42 105.88C9.5 106.32 9.55 106.79 9.53 107.23Z" fill="#011625" fill-opacity="1.000000" fill-rule="evenodd"/>
	</g>
</svg>
